<?xml version="1.0" standalone="no"?><!DOCTYPE svg PUBLIC "-//W3C//DTD SVG 1.1//EN" "http://www.w3.org/Graphics/SVG/1.1/DTD/svg11.dtd"><svg t="1560495891336" style="" viewBox="0 0 1024 1024" version="1.1" xmlns="http://www.w3.org/2000/svg" p-id="5300" xmlns:xlink="http://www.w3.org/1999/xlink" width="200" height="200"><g fill="#337ab7"><path d="M493.987 578.298L178.58 893.686c-6.696 6.706-10.784 16.01-10.784 26.24 0 20.462 16.563 37.216 37.215 37.216a37.177 37.177 0 0 0 15.063-3.16s525.49-227.764 531.451-230.563c12.276-5.562 21.77-16.354 25.486-29.765l85.043-306.467 17.118 16.937c17.862 17.862 46.7 17.862 64.564 0 17.871-17.862 17.871-46.72 0-64.565l-262.182-262.2c-17.862-17.862-46.7-17.862-64.564 0-17.87 17.864-17.87 46.72 0 64.565l16.928 16.935-307.029 85.408c-13.401 3.925-24.187 13.592-29.774 26.24L66.933 801.595c-1.853 4.451-2.971 9.304-2.971 14.5 0 20.661 16.745 37.216 37.215 37.216 10.612 0 20.1-4.288 26.794-11.339l314.844-314.844c-4.28-10.994-6.696-22.713-6.696-35.18 0-51.354 41.685-93.04 93.039-93.04s93.039 41.686 93.039 93.04-41.686 93.038-93.04 93.038c-12.465 0-24.186-2.417-35.17-6.687z" p-id="5301"></path></g></svg>