<!DOCTYPE svg PUBLIC "-//W3C//DTD SVG 20010904//EN" "http://www.w3.org/TR/2001/REC-SVG-20010904/DTD/svg10.dtd">
<svg version="1.0" xmlns="http://www.w3.org/2000/svg" width="412px" height="171px" viewBox="0 0 4120 1710" preserveAspectRatio="xMidYMid meet">
<g id="layer101" fill="#000000" stroke="none">
 <path d="M2070 1565 c0 -24 3 -25 55 -25 34 0 65 -6 80 -16 l25 -16 0 -433 c0 -496 7 -462 -95 -467 -54 -3 -60 -5 -63 -25 -3 -21 0 -23 47 -23 27 0 52 -3 54 -7 10 -17 -13 -127 -35 -171 -37 -75 -77 -92 -220 -92 l-118 0 -1 418 c0 229 -2 426 -4 438 -3 12 2 30 9 40 12 16 30 20 109 22 84 3 96 6 100 23 3 10 2 21 -1 23 -4 2 -134 3 -290 4 l-283 0 3 -22 c3 -19 10 -21 96 -26 78 -4 96 -8 108 -25 12 -16 14 -90 12 -455 l-3 -435 -130 0 c-121 0 -132 2 -163 24 -41 29 -67 85 -76 166 -10 81 -15 95 -33 95 -14 0 -15 -12 -8 -97 4 -54 9 -109 11 -123 1 -14 3 -46 3 -72 l1 -48 465 0 465 0 1 23 c0 12 6 83 12 157 l12 135 352 3 353 2 4 23 c8 33 36 269 36 295 0 15 -6 22 -19 22 -15 0 -19 -11 -24 -62 -4 -38 -18 -85 -34 -118 -23 -45 -37 -59 -78 -80 -48 -24 -57 -25 -245 -25 l-195 0 -3 209 -3 209 113 -5 c71 -3 121 -9 134 -18 29 -18 54 -72 54 -115 0 -28 4 -35 20 -35 19 0 20 7 20 194 0 107 -4 197 -8 200 -17 10 -29 -11 -34 -58 -7 -55 -34 -97 -69 -107 -13 -4 -70 -7 -126 -8 l-103 -1 0 220 0 220 26 10 c35 14 288 12 360 -2 84 -16 124 -45 161 -114 17 -33 33 -72 36 -89 3 -16 9 -38 12 -47 6 -15 2 -18 -23 -18 -33 0 -50 -16 -34 -32 5 -5 40 -16 78 -25 73 -17 105 -42 164 -127 14 -20 40 -57 58 -81 17 -24 32 -46 32 -48 0 -3 29 -48 65 -101 l66 -97 -36 -53 c-19 -29 -35 -56 -35 -60 0 -4 -17 -29 -37 -56 -35 -45 -103 -145 -128 -188 -59 -98 -75 -111 -146 -112 -62 0 -69 -3 -62 -30 5 -18 17 -19 209 -19 l204 0 0 22 c0 19 -8 25 -42 33 -57 12 -59 33 -11 102 21 31 43 63 48 73 22 37 107 159 114 163 6 4 72 -88 136 -189 11 -18 29 -44 39 -59 18 -26 18 -30 4 -54 -9 -15 -31 -31 -50 -38 -22 -7 -34 -18 -36 -32 -3 -22 -2 -22 177 -22 l181 0 0 24 c0 21 -6 24 -57 30 -31 4 -63 12 -70 18 -7 6 -13 7 -13 2 0 -4 -20 12 -45 36 -25 24 -45 48 -45 53 0 5 -26 45 -57 89 -32 44 -63 88 -68 98 -6 10 -23 36 -38 57 l-28 40 38 60 c123 196 300 446 325 459 15 8 50 15 77 16 46 2 51 5 51 25 l0 23 -211 0 c-210 0 -210 0 -207 -22 2 -15 15 -25 45 -35 23 -8 44 -20 46 -27 3 -7 -20 -51 -51 -98 -31 -46 -61 -91 -67 -99 -91 -139 -120 -177 -131 -168 -11 9 -113 153 -139 197 -5 9 -27 42 -47 72 -21 31 -38 61 -38 67 0 19 53 63 76 63 19 0 24 5 24 25 l0 25 -129 0 c-115 0 -130 2 -135 18 -9 31 -26 126 -36 202 -6 41 -13 83 -16 93 -5 16 -35 17 -440 17 l-434 0 0 -25z"/>
 <path d="M170 1241 c0 -22 19 -31 65 -31 19 0 45 -4 59 -10 l26 -10 0 -438 c0 -508 8 -472 -99 -472 -53 0 -62 -2 -57 -16 3 -9 6 -20 6 -25 0 -5 101 -9 240 -9 l240 0 0 25 c0 24 -2 25 -77 25 -48 1 -85 6 -95 14 -16 12 -17 50 -18 456 -1 358 1 444 12 451 20 13 257 11 297 -3 105 -35 159 -120 186 -290 4 -24 11 -38 20 -38 19 0 19 9 -2 218 l-17 172 -393 0 c-379 0 -393 -1 -393 -19z"/>
 <path d="M564 948 c-6 -10 14 -25 66 -51 44 -22 45 -24 103 -167 32 -80 62 -157 67 -171 4 -15 15 -42 23 -60 8 -19 39 -94 68 -166 76 -193 71 -197 199 130 56 144 110 280 120 302 9 22 25 61 35 87 15 42 23 49 57 58 21 6 43 8 48 5 6 -3 10 3 10 14 0 20 -5 21 -150 21 -126 0 -150 -2 -150 -15 0 -10 14 -17 40 -21 22 -4 43 -10 45 -14 4 -7 -46 -157 -60 -180 -4 -6 -67 -10 -151 -10 l-145 0 -24 55 c-37 82 -40 103 -20 125 10 11 26 20 37 20 11 0 18 7 18 19 0 18 -9 20 -116 23 -64 2 -118 0 -120 -4z m498 -274 c3 -3 -5 -27 -18 -54 -13 -28 -24 -55 -24 -61 0 -6 -7 -27 -16 -47 -9 -21 -20 -46 -24 -57 -4 -11 -15 -36 -24 -57 -9 -20 -16 -42 -16 -49 0 -28 -20 10 -55 106 -21 55 -46 118 -55 140 -10 22 -21 50 -25 63 l-6 22 129 0 c71 0 131 -2 134 -6z"/>
 </g>

</svg>